HIERARCHY
ROOT Hips
{
	OFFSET 0.00000 0.00000 0.00000
	CHANNELS 6 Xposition Yposition Zposition Zrotation Yrotation Xrotation 
	JOINT LHipJoint
	{
		OFFSET 0 0 0
		CHANNELS 3 Zrotation Yrotation Xrotation
		JOINT LeftUpLeg
		{
			OFFSET 1.57358 -1.76629 0.73362
			CHANNELS 3 Zrotation Yrotation Xrotation
			JOINT LeftLeg
			{
				OFFSET 2.40600 -6.61045 0.00000
				CHANNELS 3 Zrotation Yrotation Xrotation
				JOINT LeftFoot
				{
					OFFSET 2.66168 -7.31291 0.00000
					CHANNELS 3 Zrotation Yrotation Xrotation
					JOINT LeftToeBase
					{
						OFFSET 0.20870 -0.57341 2.12506
						CHANNELS 3 Zrotation Yrotation Xrotation
						End Site
						{
							OFFSET 0.00000 -0.00000 1.10557
						}
					}
				}
			}
		}
	}
	JOINT RHipJoint
	{
		OFFSET 0 0 0
		CHANNELS 3 Zrotation Yrotation Xrotation
		JOINT RightUpLeg
		{
			OFFSET -1.49299 -1.76629 0.73362
			CHANNELS 3 Zrotation Yrotation Xrotation
			JOINT RightLeg
			{
				OFFSET -2.43663 -6.69460 0.00000
				CHANNELS 3 Zrotation Yrotation Xrotation
				JOINT RightFoot
				{
					OFFSET -2.62959 -7.22474 0.00000
					CHANNELS 3 Zrotation Yrotation Xrotation
					JOINT RightToeBase
					{
						OFFSET -0.25784 -0.70841 2.21862
						CHANNELS 3 Zrotation Yrotation Xrotation
						End Site
						{
							OFFSET -0.00000 -0.00000 1.16452
						}
					}
				}
			}
		}
	}
	JOINT LowerBack
	{
		OFFSET 0 0 0
		CHANNELS 3 Zrotation Yrotation Xrotation
		JOINT Spine
		{
			OFFSET -0.00034 2.12399 -0.25450
			CHANNELS 3 Zrotation Yrotation Xrotation
			JOINT Spine1
			{
				OFFSET 0.05594 2.14379 -0.03318
				CHANNELS 3 Zrotation Yrotation Xrotation
				JOINT Neck
				{
					OFFSET 0 0 0
					CHANNELS 3 Zrotation Yrotation Xrotation
					JOINT Neck1
					{
						OFFSET -0.09835 1.62725 0.24211
						CHANNELS 3 Zrotation Yrotation Xrotation
						JOINT Head
						{
							OFFSET 0.10849 1.66041 -0.22648
							CHANNELS 3 Zrotation Yrotation Xrotation
							End Site
							{
								OFFSET 0.04385 1.68267 -0.10541
							}
						}
					}
				}
				JOINT LeftShoulder
				{
					OFFSET 0 0 0
					CHANNELS 3 Zrotation Yrotation Xrotation
					JOINT LeftArm
					{
						OFFSET 3.29108 0.79398 -0.68179
						CHANNELS 3 Zrotation Yrotation Xrotation
						JOINT LeftForeArm
						{
							OFFSET 5.15310 -0.00000 -0.00000
							CHANNELS 3 Zrotation Yrotation Xrotation
							JOINT LeftHand
							{
								OFFSET 3.75138 -0.00000 -0.00000
								CHANNELS 3 Zrotation Yrotation Xrotation
								JOINT LeftFingerBase
								{
									OFFSET 0 0 0
									CHANNELS 3 Zrotation Yrotation Xrotation
									JOINT LeftHandIndex1
									{
										OFFSET 0.52917 -0.00000 0.00000
										CHANNELS 3 Zrotation Yrotation Xrotation
										End Site
										{
											OFFSET 0.42663 -0.00000 0.00000
										}
									}
								}
								JOINT LThumb
								{
									OFFSET 0 0 0
									CHANNELS 3 Zrotation Yrotation Xrotation
									End Site
									{
										OFFSET 0.43315 -0.00000 0.43315
									}
								}
							}
						}
					}
				}
				JOINT RightShoulder
				{
					OFFSET 0 0 0
					CHANNELS 3 Zrotation Yrotation Xrotation
					JOINT RightArm
					{
						OFFSET -3.07414 1.06285 -0.44338
						CHANNELS 3 Zrotation Yrotation Xrotation
						JOINT RightForeArm
						{
							OFFSET -5.29613 -0.00000 0.00000
							CHANNELS 3 Zrotation Yrotation Xrotation
							JOINT RightHand
							{
								OFFSET -3.76144 -0.00000 -0.00000
								CHANNELS 3 Zrotation Yrotation Xrotation
								JOINT RightFingerBase
								{
									OFFSET 0 0 0
									CHANNELS 3 Zrotation Yrotation Xrotation
									JOINT RightHandIndex1
									{
										OFFSET -0.74732 -0.00000 0.00000
										CHANNELS 3 Zrotation Yrotation Xrotation
										End Site
										{
											OFFSET -0.60251 -0.00000 0.00000
										}
									}
								}
								JOINT RThumb
								{
									OFFSET 0 0 0
									CHANNELS 3 Zrotation Yrotation Xrotation
									End Site
									{
										OFFSET -0.61171 -0.00000 0.61171
									}
								}
							}
						}
					}
				}
			}
		}
	}
}
MOTION
Frames: 6
Frame Time: .0083333
-0.2827 16.1160 -7.1414 -2.8057 -5.6817 21.1623 0.0000 0.0000 0.0000 -3.2205 -8.5262 -70.8495 21.8430 19.9184 95.3958 -0.3840 -11.1549 1.6023 0.5713 -4.8405 -13.4543 0.0000 0.0000 0.0000 22.7461 6.6296 -4.3463 -4.2384 -12.4711 37.4196 -0.6761 1.5008 -15.0936 -3.4835 11.4393 -33.7763 3.5242 2.4944 17.7338 2.2498 4.1678 1.2775 -0.5915 1.9013 -8.4818 -9.0864 -4.3756 -21.8334 5.9954 -3.8780 0.2844 2.9661 -1.6152 3.7644 0.0000 0.0000 0.0000 -70.9764 38.5435 47.4859 100.8703 -59.5488 -69.3997 -0.0000 0.0000 -27.3152 15.9188 16.0908 4.5198 -7.1250 0.0000 -0.0000 -11.1685 46.3690 -0.3820 0.0000 0.0000 0.0000 84.8782 14.8359 50.1088 -136.1984 50.1677 -98.6856 0.0000 -0.0000 -19.7111 -18.6079 32.0256 -10.1233 7.1250 -0.0000 -0.0000 7.4109 3.1964 7.8773
-0.2874 16.1485 -6.6186 -2.6109 -4.7764 21.0009 0.0000 0.0000 0.0000 -2.9493 -9.7132 -71.8491 20.8849 19.9812 92.5880 -0.4642 -12.4121 1.0678 0.5716 -4.8419 -13.4582 0.0000 0.0000 0.0000 22.6546 5.1285 -1.2961 -3.5286 -11.5051 34.0031 -0.3757 2.4216 -10.9953 -3.2630 11.1091 -32.6486 3.9246 2.5496 17.5225 2.0584 4.3021 1.0890 -1.0478 1.9453 -8.5215 -8.9688 -4.7044 -21.5252 5.9535 -4.3716 0.4287 2.8863 -1.8662 3.7977 0.0000 0.0000 0.0000 -69.9244 40.3478 47.9941 104.4034 -59.2014 -72.4403 -0.0000 0.0000 -27.1414 15.3133 13.1612 3.5675 -7.1250 0.0000 -0.0000 -10.9427 43.3374 0.4548 0.0000 0.0000 0.0000 84.2642 14.6480 50.2263 -138.9303 48.6911 -100.7610 0.0000 -0.0000 -20.6695 -18.2816 32.8655 -10.1639 7.1250 -0.0000 -0.0000 7.7013 3.9775 8.2900
-0.2911 16.1873 -6.0794 -2.2945 -3.5188 20.6071 0.0000 0.0000 0.0000 -2.8439 -11.1979 -72.2426 19.8262 19.9993 89.4918 -0.5587 -13.7158 0.7402 0.5975 -4.9486 -13.7620 0.0000 0.0000 0.0000 22.5433 3.4188 2.2169 -2.8017 -10.3670 30.1734 -0.0807 2.9314 -5.1406 -2.4711 9.7851 -28.2835 4.4150 2.4338 17.4498 1.8243 4.2293 0.9518 -1.5568 1.8847 -8.5799 -8.7778 -5.0134 -21.2561 6.0420 -4.8625 0.5429 2.8366 -2.1066 3.8289 0.0000 0.0000 0.0000 -69.0557 42.0796 48.4111 106.9125 -58.8912 -74.5921 -0.0000 0.0000 -27.4502 15.4580 7.1200 1.9631 -7.1250 0.0000 -0.0000 -9.6127 37.2095 1.8636 0.0000 0.0000 0.0000 83.7368 14.2400 50.5200 -141.0249 47.4508 -102.3196 0.0000 -0.0000 -20.8167 -18.8999 32.3245 -10.3744 7.1250 -0.0000 -0.0000 7.2849 3.5535 7.7840
-0.3031 16.2230 -5.5319 -1.9284 -2.2982 20.2334 0.0000 0.0000 0.0000 -2.9625 -12.5230 -72.2322 18.6799 19.9582 86.1377 -0.6546 -14.9629 0.3541 0.5475 -4.7405 -13.1698 0.0000 0.0000 0.0000 22.4260 2.1735 6.1018 -2.0629 -8.9960 25.7827 0.0015 1.6551 2.2060 -1.7226 8.2626 -23.5146 4.5774 2.3196 17.2528 1.6811 4.0910 0.8910 -1.7608 1.8117 -8.5215 -8.6754 -5.2914 -21.2655 6.2080 -5.2714 0.6968 2.8299 -2.2977 3.9110 0.0000 -0.0000 0.0000 -68.7647 43.7835 48.1844 110.2913 -58.3856 -77.4776 -0.0000 0.0000 -26.8646 13.8031 13.8554 3.3671 -7.1250 0.0000 -0.0000 -12.4663 43.8717 0.3529 0.0000 -0.0000 0.0000 83.1483 13.6047 50.8605 -142.7676 46.3420 -103.5920 0.0000 -0.0000 -21.0670 -19.6854 31.3556 -10.5456 7.1250 -0.0000 -0.0000 6.7150 2.7288 7.0750
-0.3244 16.2597 -4.9774 -1.6819 -1.2092 19.8580 0.0000 0.0000 0.0000 -3.1844 -13.4836 -71.8888 17.4932 19.8487 82.6527 -0.7675 -16.1741 0.3634 0.3996 -4.0584 -11.2411 0.0000 0.0000 0.0000 22.5657 1.6745 10.4448 -1.3334 -7.3121 20.6433 -0.3993 -2.0948 11.3949 -1.1807 6.8963 -19.4086 4.4882 2.3271 16.9578 1.6885 4.0683 0.8971 -1.6822 1.8109 -8.3583 -8.9025 -5.6748 -21.3793 6.6475 -5.7562 1.0344 2.9495 -2.5102 4.0906 0.0000 0.0000 0.0000 -68.8834 45.1800 48.1608 112.4717 -58.0032 -79.3306 -0.0000 0.0000 -26.4999 13.9337 15.0035 3.6749 -7.1250 0.0000 -0.0000 -12.6670 45.0326 -0.0104 0.0000 0.0000 0.0000 82.5774 12.7808 50.9429 -143.9272 45.5631 -104.4256 0.0000 -0.0000 -21.0112 -20.0375 30.9492 -10.6231 7.1250 -0.0000 -0.0000 6.4617 2.3861 6.7676
-0.3513 16.2918 -4.4126 -1.3248 -0.1580 19.3891 0.0000 0.0000 0.0000 -3.7584 -14.2340 -71.1191 16.3131 19.6709 79.1633 -0.8637 -17.1820 0.2237 0.2941 -3.4873 -9.6385 0.0000 0.0000 0.0000 22.8102 1.8246 15.5858 -0.6643 -5.2126 14.5158 -1.6318 -7.3750 22.8834 -0.7166 5.4097 -15.0810 4.0961 2.3267 16.6187 1.7327 3.9774 0.9566 -1.3757 1.7916 -8.1393 -9.2677 -5.9596 -21.3141 7.2627 -6.1048 1.2618 3.1635 -2.6478 4.2145 0.0000 0.0000 0.0000 -69.3569 46.0434 47.9368 113.3226 -57.8415 -80.0516 -0.0000 0.0000 -26.2332 14.5762 12.1413 3.1305 -7.1250 0.0000 -0.0000 -11.3521 42.2325 0.7862 0.0000 0.0000 0.0000 82.1352 11.6795 50.9749 -144.4875 45.1747 -104.8243 0.0000 -0.0000 -20.3620 -20.4854 31.0420 -10.9045 7.1250 -0.0000 -0.0000 6.2183 2.5692 6.5287
